<?xml version="1.0" encoding="utf-8"?>
<!-- Generator: Adobe Illustrator 26.0.1, SVG Export Plug-In . SVG Version: 6.00 Build 0)  -->
<svg version="1.1" id="Layer_1" xmlns="http://www.w3.org/2000/svg" xmlns:xlink="http://www.w3.org/1999/xlink" x="0px" y="0px"
	 viewBox="0 0 2239.8 1070.6" style="enable-background:new 0 0 2239.8 1070.6;" xml:space="preserve">
<style type="text/css">
	.st0{fill-rule:evenodd;clip-rule:evenodd;fill:url(#SVGID_1_);}
	.st1{fill-rule:evenodd;clip-rule:evenodd;fill:url(#SVGID_00000165920453355934372350000004250028414377234843_);}
	.st2{fill-rule:evenodd;clip-rule:evenodd;fill:url(#SVGID_00000115517068791315590910000006223969626017955973_);}
	.st3{fill-rule:evenodd;clip-rule:evenodd;fill:url(#SVGID_00000009589747127965856010000000703408955838572673_);}
	.st4{fill-rule:evenodd;clip-rule:evenodd;fill:url(#SVGID_00000126318953631801372350000011678472703617517970_);}
	.st5{fill-rule:evenodd;clip-rule:evenodd;fill:url(#SVGID_00000060736453006064581170000007802128300147553155_);}
	.st6{fill:url(#SVGID_00000013189874969579089430000000240414596224041109_);}
	.st7{fill:url(#SVGID_00000082367086963988559010000010408790235509474179_);}
	.st8{fill:url(#SVGID_00000068640490332832354920000014729791067668111772_);}
	.st9{fill:url(#SVGID_00000030468103455281640990000014547674234611303087_);}
	.st10{fill:url(#SVGID_00000150781151713469528450000004624936620950666662_);}
	.st11{fill:#1B224E;}
	.st12{fill:url(#SVGID_00000061465268137007492020000009593455806148427962_);}
	.st13{fill:url(#SVGID_00000007403313209889060470000017799478047581639049_);}
	.st14{fill:url(#SVGID_00000143615696666776458120000016113237330131076005_);}
	.st15{fill:url(#SVGID_00000104699152871354870360000015985033144428325275_);}
	.st16{fill:url(#SVGID_00000181046049795734922080000011083008297326305719_);}
	.st17{fill:url(#SVGID_00000052072397534366469550000003268186983243512253_);}
	.st18{fill:url(#SVGID_00000174574800184701187990000016229195417970068624_);}
	.st19{fill:url(#SVGID_00000073688417146250091550000009651701617383522952_);}
	.st20{fill:url(#SVGID_00000020391382679106400020000010665790312933585585_);}
	.st21{fill:url(#SVGID_00000075858496927646341510000009961948050602657428_);}
	.st22{fill:url(#SVGID_00000016777419416126983220000008194054096869777827_);}
	.st23{fill-rule:evenodd;clip-rule:evenodd;fill:url(#SVGID_00000016072053819185012020000016072315099953702836_);}
	.st24{fill-rule:evenodd;clip-rule:evenodd;fill:url(#SVGID_00000003091524677458644080000013091274708591280813_);}
	.st25{fill-rule:evenodd;clip-rule:evenodd;fill:url(#SVGID_00000014636079784876599330000017362352340482144695_);}
	.st26{fill-rule:evenodd;clip-rule:evenodd;fill:url(#SVGID_00000132080456263194451630000012419277307624699548_);}
	.st27{fill-rule:evenodd;clip-rule:evenodd;fill:url(#SVGID_00000183938546769176694040000002175568442442550149_);}
	.st28{fill-rule:evenodd;clip-rule:evenodd;fill:url(#SVGID_00000132778909337744904800000011426428268174794902_);}
	.st29{enable-background:new    ;}
	.st30{fill:#282661;}
</style>
<g>
	
		<linearGradient id="SVGID_1_" gradientUnits="userSpaceOnUse" x1="1877.1229" y1="768.6836" x2="1645.2397" y2="657.2327" gradientTransform="matrix(1 0 8.000000e-02 -1 -70.7743 1072.6086)">
		<stop  offset="0" style="stop-color:#4DABE0"/>
		<stop  offset="3.000000e-02" style="stop-color:#4CA4DA"/>
		<stop  offset="0.26" style="stop-color:#3D77B0"/>
		<stop  offset="0.48" style="stop-color:#32538F"/>
		<stop  offset="0.68" style="stop-color:#293876"/>
		<stop  offset="0.86" style="stop-color:#292A67"/>
		<stop  offset="1" style="stop-color:#282661"/>
	</linearGradient>
	<path style="fill:url(#SVGID_1_);" d="M1423.6,502.3c10.7-80.3,30.5-122.9,96.6-173c51.9-39.2,108.5-58.8,169.9-58.7
		c35.2,0,72.8,8.2,112.9,24.5l-10.3,121c-10.9-14.8-81.6-23.1-107.5-23.1c-31.9-0.3-63,10.1-88.3,29.6
		c-32.8,24.9-51.1,59-54.8,102.3c-5.5,65-107.6-20.7-102.8,120.7C1439.4,645.7,1415.2,565.8,1423.6,502.3z"/>
	
		<linearGradient id="SVGID_00000003097226915479987790000006790890040641496246_" gradientUnits="userSpaceOnUse" x1="1650.3954" y1="779.3759" x2="1517.8972" y2="564.4575" gradientTransform="matrix(1 0 8.000000e-02 -1 -70.7743 1072.6086)">
		<stop  offset="0" style="stop-color:#4DABE0"/>
		<stop  offset="3.000000e-02" style="stop-color:#4CA4DA"/>
		<stop  offset="0.26" style="stop-color:#3D77B0"/>
		<stop  offset="0.48" style="stop-color:#32538F"/>
		<stop  offset="0.68" style="stop-color:#293876"/>
		<stop  offset="0.86" style="stop-color:#292A67"/>
		<stop  offset="1" style="stop-color:#282661"/>
	</linearGradient>
	<path style="fill:url(#SVGID_00000003097226915479987790000006790890040641496246_);" d="M1764.7,281.8
		c-24.2-7.2-49.3-11-74.5-11.2c-61.4,0-118,19.6-169.9,58.7c-66,50-86,92.6-96.7,173c-8.4,63.5,15.8,143.5,15.8,143.5
		c-4.8-141.5,102.8-120.8,102.8-120.8c3.7-43.3,21.9-77.4,54.8-102.4c13.2-10,28-17.7,43.9-22.7
		C1644.1,376.7,1662.9,319.1,1764.7,281.8z"/>
	
		<linearGradient id="SVGID_00000057868148288167792370000007152040453036949900_" gradientUnits="userSpaceOnUse" x1="1457.1729" y1="667.3643" x2="1707.7899" y2="337.6838" gradientTransform="matrix(1 0 8.000000e-02 -1 -70.7743 1072.6086)">
		<stop  offset="0" style="stop-color:#BB2127"/>
		<stop  offset="0.26" style="stop-color:#CD2028"/>
	</linearGradient>
	<path style="fill:url(#SVGID_00000057868148288167792370000007152040453036949900_);" d="M1491.7,353.1
		c-40.2,135.2,51.8,160.8,51.8,160.8c-5.9,59,7.4,89.8,36.1,114.7c23.1,19.9,52.8,30.5,83.3,29.6c25.9,0,97.9-8.3,111.3-23.1
		l-10.2,121.2c-42.8,16.4-81.8,24.6-117,24.5c-58.8,1-115.8-19.9-160-58.7c-57.7-50-83.1-115.2-76.3-195.7
		C1416.1,460.8,1444.8,399.3,1491.7,353.1z"/>
	
		<linearGradient id="SVGID_00000101788567487789067020000011524234477343824048_" gradientUnits="userSpaceOnUse" x1="1598.2802" y1="381.6094" x2="1931.9526" y2="342.5086" gradientTransform="matrix(1 0 8.000000e-02 -1 -70.7743 1072.6086)">
		<stop  offset="0" style="stop-color:#BB2127"/>
		<stop  offset="0.26" style="stop-color:#CD2028"/>
	</linearGradient>
	<path style="fill:url(#SVGID_00000101788567487789067020000011524234477343824048_);" d="M1662.9,658.2c-5.5,0-11-0.4-16.4-1v0.2
		c0,0-17.1,70.6-130.2,86.2c39,24.9,84.5,37.8,130.8,37.2c35.2,0,74.2-8.2,117-24.5l10.2-120.9
		C1760.9,649.9,1688.9,658.2,1662.9,658.2z"/>
	
		<linearGradient id="SVGID_00000059307676618924207150000012059686576559153819_" gradientUnits="userSpaceOnUse" x1="1563.6941" y1="372.1766" x2="1689.2522" y2="372.1766" gradientTransform="matrix(1 0 8.000000e-02 -1 -70.7743 1072.6086)">
		<stop  offset="0.22" style="stop-color:#941B1F"/>
		<stop  offset="0.82" style="stop-color:#951D1F"/>
	</linearGradient>
	<path style="fill:url(#SVGID_00000059307676618924207150000012059686576559153819_);" d="M1646.5,657.4c-3.4,13.6-9.9,26.2-19,36.8
		c-9.2,10.8-20.1,20-32.3,27.2l-9.4,5.2c-3.1,1.5-6.4,2.8-9.6,4.1c-6.4,2.7-13,5-19.7,6.7c-6.7,1.7-13.6,2.8-20.1,4.2
		c-6.8,0.6-13.6,1.4-20.2,1.8c6.7-1.5,13.3-2.7,20-4s13.2-3.3,19.6-5.4c13-4.1,25.5-9.6,37.2-16.4c11.8-6.9,22.5-15.5,31.8-25.6
		C1634.1,681.9,1641.5,670.2,1646.5,657.4z"/>
	<path class="st11" d="M1543.5,513.9c-14.7-5-27.9-13.7-38.4-25.3c-10.6-11.7-18.3-25.7-22.7-40.8c-3.7-15.6-4.6-31.7-2.9-47.7
		c0.8-8,2.9-16,4.5-23.9c2.4-7.8,4.9-15.6,7.6-23.2l-5.3,23.5c-1,7.9-2.6,15.8-2.9,23.6c-1.2,15.4,0,31,3.8,46
		C1495.3,475.8,1515.9,500.5,1543.5,513.9z"/>
	
		<linearGradient id="SVGID_00000034769956333656610830000000302469254176934076_" gradientUnits="userSpaceOnUse" x1="1657.0916" y1="731.8632" x2="1774.3032" y2="731.8632" gradientTransform="matrix(1 0 8.000000e-02 -1 -70.7743 1072.6086)">
		<stop  offset="0" style="stop-color:#253169"/>
		<stop  offset="0.41" style="stop-color:#282A65"/>
		<stop  offset="1" style="stop-color:#282661"/>
	</linearGradient>
	<path style="fill:url(#SVGID_00000034769956333656610830000000302469254176934076_);" d="M1640.8,399.7
		c1.3-14.9,6.3-29.2,14.7-41.6c8.3-12.7,18.4-24.2,30.1-33.9c11.7-9.6,24.3-18,37.7-25.1c6.8-3.2,13.6-6.5,20.3-9.5
		c6.7-3,13.9-5.3,20.9-7.7c-6.7,3.4-13.4,6.5-20,9.8l-19.6,10.6c-12.8,7.4-24.9,16-36.3,25.5c-11.5,9.3-21.7,20.1-30.2,32.2
		c-4.2,6-7.8,12.4-10.9,19.1C1644.3,385.5,1642.1,392.5,1640.8,399.7z"/>
	
		<linearGradient id="SVGID_00000033344502985759771540000000438325265460261055_" gradientUnits="userSpaceOnUse" x1="2192.9812" y1="398.85" x2="1936.8302" y2="398.85" gradientTransform="matrix(1 0 8.000000e-02 -1 -70.7743 1072.6086)">
		<stop  offset="0" style="stop-color:#4DABE0"/>
		<stop  offset="3.000000e-02" style="stop-color:#4CA4DA"/>
		<stop  offset="0.26" style="stop-color:#3D77B0"/>
		<stop  offset="0.48" style="stop-color:#32538F"/>
		<stop  offset="0.68" style="stop-color:#293876"/>
		<stop  offset="0.86" style="stop-color:#292A67"/>
		<stop  offset="1" style="stop-color:#282661"/>
	</linearGradient>
	<path style="fill:url(#SVGID_00000033344502985759771540000000438325265460261055_);" d="M2220.4,617.3c0,0,7.6,163.3-187.2,177.8
		c-32.2,1.6-64.5-2.5-95.3-12.1c-43.1-13.6-99.1-42-107.3-52.5l59.8-101.3c6.2,7.7,59.3,72.4,116.6,66.9c12.7-0.9,25-5.2,35.5-12.5
		c15.6-10.8,29.9-30.3,29.7-50.4c-0.3-27.2-26.1-52.2-63.5-54.8C2008.7,578.7,2164.5,498,2220.4,617.3z"/>
	
		<linearGradient id="SVGID_00000119827842890432890880000010404326229057501611_" gradientUnits="userSpaceOnUse" x1="2038.9321" y1="745.3586" x2="2196.5149" y2="438.7666" gradientTransform="matrix(1 0 8.000000e-02 -1 -70.7743 1072.6086)">
		<stop  offset="0.23" style="stop-color:#BB2127"/>
		<stop  offset="0.56" style="stop-color:#CD2028"/>
	</linearGradient>
	<path style="fill:url(#SVGID_00000119827842890432890880000010404326229057501611_);" d="M2226,311.7l-60.6,100.9
		c0,0-44.9-44-83.3-33.3c-38.4,10.7-66.2,57-7.5,89.3s148.2,38.6,145.9,148.7c0,0,2.2,93.4-73.3,142.2c3.3-4.3,51.6-70,26.3-126.6
		c-7.1-17.2-19.4-31.8-35.1-41.8c-48.9-28-113.4-16.8-129.5-12.4c0,0-155.9-20.6-110.6-176.2S2092,252.8,2226,311.7z"/>
	
		<linearGradient id="SVGID_00000178205716892141547730000010714515637053731757_" gradientUnits="userSpaceOnUse" x1="1925.3173" y1="370.8506" x2="2016.9003" y2="550.796" gradientTransform="matrix(1 0 8.000000e-02 -1 -70.7743 1072.6086)">
		<stop  offset="0" style="stop-color:#4DABE0"/>
		<stop  offset="0.15" style="stop-color:#4794C7"/>
		<stop  offset="0.35" style="stop-color:#3D79AC"/>
		<stop  offset="0.56" style="stop-color:#36669A"/>
		<stop  offset="0.78" style="stop-color:#325B8F"/>
		<stop  offset="1" style="stop-color:#30578B"/>
	</linearGradient>
	<path style="fill:url(#SVGID_00000178205716892141547730000010714515637053731757_);" d="M2074.3,572.6c0,0-119.8,13.6-179.7-82.1
		c0,0,15.1,77.9,132.1,91.4C2026.8,581.9,2059.4,581.9,2074.3,572.6z"/>
	
		<linearGradient id="SVGID_00000175297750920034527910000005174336719405940628_" gradientUnits="userSpaceOnUse" x1="1918.8529" y1="453.6441" x2="2223.7212" y2="453.6441" gradientTransform="matrix(1 0 8.000000e-02 -1 -70.7743 1072.6086)">
		<stop  offset="0" style="stop-color:#253169"/>
		<stop  offset="0.41" style="stop-color:#282A65"/>
		<stop  offset="1" style="stop-color:#282661"/>
	</linearGradient>
	<path style="fill:url(#SVGID_00000175297750920034527910000005174336719405940628_);" d="M2155.1,747.2
		c9.8-16.9,16.8-35.3,20.8-54.4c4.2-18.3,3.2-37.4-2.9-55.2c-3.4-8.4-7.9-16.3-13.4-23.5c-5.1-7.4-11.2-14-18.1-19.7
		c-14-11.3-32.8-15.4-51.3-17.2c-18.5-1.8-38.1-1.8-57-3.5c-19-1.5-37.7-5.7-55.5-12.4c-34.9-13.3-64.3-38.2-83.1-70.5
		c20.2,30.9,49.9,54.5,84.6,67c17.5,6.4,35.8,10.4,54.4,11.9c18.9,1.7,37.9,1.9,57.1,3.1c18.9,2,38.5,6.3,53.3,18.5
		c14.3,12.2,25.4,27.7,32.3,45.1c5.9,18.4,6.5,38.2,1.8,57C2173.3,712.5,2165.6,730.6,2155.1,747.2z"/>
	
		<linearGradient id="SVGID_00000135663597325145471130000003199217893519425936_" gradientUnits="userSpaceOnUse" x1="2063.5659" y1="510.7208" x2="2066.2422" y2="455.4263" gradientTransform="matrix(1 0 8.000000e-02 -1 -70.7743 1072.6086)">
		<stop  offset="0" style="stop-color:#4DABE0"/>
		<stop  offset="3.000000e-02" style="stop-color:#4CA4DA"/>
		<stop  offset="0.26" style="stop-color:#3D77B0"/>
		<stop  offset="0.48" style="stop-color:#32538F"/>
		<stop  offset="0.68" style="stop-color:#293876"/>
		<stop  offset="0.86" style="stop-color:#292A67"/>
		<stop  offset="1" style="stop-color:#282661"/>
	</linearGradient>
	<path style="fill:url(#SVGID_00000135663597325145471130000003199217893519425936_);" d="M2018.7,580.9c0,0,19.1,2.9,28.3,10.3
		C2047,591.1,2029.7,576.9,2018.7,580.9z"/>
	
		<linearGradient id="SVGID_00000042001376308769360450000010575718465442155171_" gradientUnits="userSpaceOnUse" x1="1153.8237" y1="498.9692" x2="1272.759" y2="282.9169" gradientTransform="matrix(1 0 8.000000e-02 -1 -70.7743 1072.6086)">
		<stop  offset="0" style="stop-color:#253871"/>
		<stop  offset="2.000000e-02" style="stop-color:#23366E"/>
		<stop  offset="0.31" style="stop-color:#2E5592"/>
		<stop  offset="0.64" style="stop-color:#3673B3"/>
		<stop  offset="0.82" style="stop-color:#397FC1"/>
	</linearGradient>
	<path style="fill:url(#SVGID_00000042001376308769360450000010575718465442155171_);" d="M1098.4,505.7h130.4l-22.1,261.5h-130.3
		L1098.4,505.7z"/>
	
		<linearGradient id="SVGID_00000004514661755751370150000000174841276522710165_" gradientUnits="userSpaceOnUse" x1="1202.1428" y1="509.9661" x2="1015.2573" y2="828.8962" gradientTransform="matrix(1 0 8.000000e-02 -1 -70.7743 1072.6086)">
		<stop  offset="0" style="stop-color:#4DABE0"/>
		<stop  offset="7.000000e-02" style="stop-color:#4694CC"/>
		<stop  offset="0.19" style="stop-color:#3C73AD"/>
		<stop  offset="0.32" style="stop-color:#335590"/>
		<stop  offset="0.45" style="stop-color:#2D3F7D"/>
		<stop  offset="0.6" style="stop-color:#28306D"/>
		<stop  offset="0.77" style="stop-color:#282864"/>
		<stop  offset="1" style="stop-color:#282661"/>
	</linearGradient>
	<polygon style="fill:url(#SVGID_00000004514661755751370150000000174841276522710165_);" points="964.3,269.9 1104.4,567.7 
		1222.1,534.2 1094.3,269.9 	"/>
	
		<linearGradient id="SVGID_00000054246915160502321470000017629066318325890951_" gradientUnits="userSpaceOnUse" x1="1292.2837" y1="541.9683" x2="1148.6267" y2="741.9176" gradientTransform="matrix(1 0 8.000000e-02 -1 -70.7743 1072.6086)">
		<stop  offset="0" style="stop-color:#BB2127"/>
		<stop  offset="0.26" style="stop-color:#CD2028"/>
	</linearGradient>
	<path style="fill:url(#SVGID_00000054246915160502321470000017629066318325890951_);" d="M1404.1,269.9h-130l-92,175.9
		c0,0-48.1,89.2-68,103c-10.6,7.3-17,1.3-17,1.3c-0.3-0.2-0.7-0.5-1-0.8l-1.1-1.9l-14.2,173.7c47.3,33.2,99.8-93.4,136.8-154.7
		c11.4-18.8,20.6-33.8,32.4-52.4L1404.1,269.9z"/>
	
		<linearGradient id="SVGID_00000121248152081918840390000016450764333803675049_" gradientUnits="userSpaceOnUse" x1="1123.9236" y1="661.188" x2="1284.0009" y2="661.188" gradientTransform="matrix(1 0 8.000000e-02 -1 -70.7743 1072.6086)">
		<stop  offset="0.22" style="stop-color:#941B1F"/>
		<stop  offset="0.82" style="stop-color:#951D1F"/>
	</linearGradient>
	<path style="fill:url(#SVGID_00000121248152081918840390000016450764333803675049_);" d="M1274.1,269.9
		c-22.8,47.8-46.8,95.2-72.1,142c-12.6,23.5-25.5,46.7-39.1,69.7c-6.8,11.5-13.6,23-20.9,34.2c-3.7,5.6-7.4,11.2-11.4,16.6
		c-3.9,5.7-8.5,10.9-13.6,15.5l0,0c-2.7,2.2-5.8,3.7-9.1,4.5c-3.1,0.9-6.5,0.7-9.5-0.8l0,0c-2-0.8-3.5-2.5-4.2-4.5
		c0.9,1.8,2.6,3.2,4.5,3.6l0,0c5.7,2,11.8-1.4,16.1-5.2l0,0c4.7-4.6,8.8-9.7,12.3-15.2c3.8-5.4,7.3-11.1,10.8-16.7
		c7.1-11.2,13.8-22.7,20.5-34.2c13.2-23,26-46.4,38.9-69.6L1274.1,269.9z"/>
	
		<linearGradient id="SVGID_00000170249699186651070750000003769816167859686064_" gradientUnits="userSpaceOnUse" x1="1124.3318" y1="432.834" x2="1258.5537" y2="432.834" gradientTransform="matrix(1 0 8.000000e-02 -1 -70.7743 1072.6086)">
		<stop  offset="0.22" style="stop-color:#941B1F"/>
		<stop  offset="0.82" style="stop-color:#951D1F"/>
	</linearGradient>
	<path style="fill:url(#SVGID_00000170249699186651070750000003769816167859686064_);" d="M1224.8,552.1c-14,29.8-29.6,58.9-46.6,87
		c-8.5,14.2-17.6,28.1-27.2,41.6c-9.4,13.9-20.5,26.6-33.2,37.6l0,0c-4.2,3.6-9.1,6.4-14.5,8c-5.1,1.6-10.7,1.3-15.6-0.9l0,0
		c-3.3-1.3-5.9-3.9-7.1-7.3c1.4,3,4.1,5.3,7.3,6.4l0,0c4.7,1.7,10,1.6,14.7-0.2c4.8-1.9,9.2-4.6,13.1-8.1l0,0
		c6-5.5,11.6-11.5,16.6-17.9c5.2-6.4,10-13,14.8-19.7c9.3-13.6,18.1-27.4,26.9-41.4C1191.6,609.3,1208.3,580.9,1224.8,552.1z"/>
	<g>
		
			<linearGradient id="SVGID_00000042716519662698930810000010914335986497776559_" gradientUnits="userSpaceOnUse" x1="-135.4587" y1="587.2581" x2="1159.5852" y2="1084.4099" gradientTransform="matrix(1 0 0 -1 0 1072.6086)">
			<stop  offset="0.23" style="stop-color:#BB2127"/>
			<stop  offset="0.56" style="stop-color:#CD2028"/>
		</linearGradient>
		<path style="fill-rule:evenodd;clip-rule:evenodd;fill:url(#SVGID_00000042716519662698930810000010914335986497776559_);" d="
			M206.9,479.6c-30.1-9.9-59.3-22.6-87.1-37.9c-6.9-3.8-14-7.8-21.1-12.2c-172.2-104.9-56.7-281.1,121-230.8
			c75.3,21.5,146,98.4,221.1,140.3c57,31.8,116.4,43.1,182.3-5.3c14.5-10.7,28.3-22,41.6-33.7l0,0
			C597.2,374.3,467.2,512.7,206.9,479.6z"/>
		
			<linearGradient id="SVGID_00000074404233905315985310000004572458184061696941_" gradientUnits="userSpaceOnUse" x1="214.9271" y1="680.3589" x2="664.6771" y2="680.3589" gradientTransform="matrix(1 0 0 -1 0 1072.6086)">
			<stop  offset="0" style="stop-color:#DD2427"/>
			<stop  offset="0.63" style="stop-color:#941B1F"/>
		</linearGradient>
		<path style="fill-rule:evenodd;clip-rule:evenodd;fill:url(#SVGID_00000074404233905315985310000004572458184061696941_);" d="
			M516.6,365.4c33.9,3.8,69.2-4.5,106.5-31.8c14.5-10.7,28.3-22,41.6-33.7l0,0C598,373.6,469.9,509.8,214.9,480.5
			C345.9,473.4,441,441.8,516.6,365.4z"/>
		
			<linearGradient id="SVGID_00000109750085061432783070000014668578213771960711_" gradientUnits="userSpaceOnUse" x1="254.0733" y1="229.3563" x2="991.5907" y2="229.3563" gradientTransform="matrix(1 0 0 -1 0 1072.6086)">
			<stop  offset="0.23" style="stop-color:#BB2127"/>
			<stop  offset="0.56" style="stop-color:#CD2028"/>
		</linearGradient>
		<path style="fill-rule:evenodd;clip-rule:evenodd;fill:url(#SVGID_00000109750085061432783070000014668578213771960711_);" d="
			M510.8,1035.9c-3,1.6-6,3.1-9.1,4.5c-23.1,10.2-48.2,15.4-73.4,15.2c-107.7-2.4-159.1-124.1-71.7-202.2
			c60.7-54.2,219.4-125.1,154-222.6l0,0C607.9,753.7,629.9,914.6,510.8,1035.9z"/>
		
			<linearGradient id="SVGID_00000162318841027539801850000010660140358365803398_" gradientUnits="userSpaceOnUse" x1="408.2539" y1="224.8455" x2="1399.3822" y2="364.1477" gradientTransform="matrix(1 0 0 -1 0 1072.6086)">
			<stop  offset="0.22" style="stop-color:#941B1F"/>
			<stop  offset="0.82" style="stop-color:#DD2427"/>
		</linearGradient>
		<path style="fill-rule:evenodd;clip-rule:evenodd;fill:url(#SVGID_00000162318841027539801850000010660140358365803398_);" d="
			M519.2,708.4c10.5-23.9,10.2-49.6-8.6-77.6l0,0c97.3,122.9,119.3,283.8,0.3,405.1C584.4,943.6,582.3,788,519.2,708.4z"/>
		
			<linearGradient id="SVGID_00000053537042422451850950000018433577203723025540_" gradientUnits="userSpaceOnUse" x1="56.0745" y1="502.3651" x2="933.257" y2="502.3651" gradientTransform="matrix(1 0 0 -1 0 1072.6086)">
			<stop  offset="0" style="stop-color:#4DABE0"/>
			<stop  offset="1" style="stop-color:#282661"/>
		</linearGradient>
		<path style="fill-rule:evenodd;clip-rule:evenodd;fill:url(#SVGID_00000053537042422451850950000018433577203723025540_);" d="
			M392.2,540.3c-62-32.6-118.8-38.8-185.3-60.7C467.4,512.8,597.3,374.4,665,300l0,0c116.1-102.3,197.6-234.2,419-184.7
			c-224.5,106.6-242.1,210-296.6,427.1c-31.8,125.9-155.6,430.1-276.4,493.5c119-121.3,97-282.2-0.3-405.1l0,0
			C489.8,599.8,448.6,570.3,392.2,540.3z"/>
		
			<linearGradient id="SVGID_00000083783951832145100980000007416727330751571085_" gradientUnits="userSpaceOnUse" x1="432.6707" y1="834.7318" x2="626.5158" y2="1015.5117" gradientTransform="matrix(1 0 0 -1 0 1072.6086)">
			<stop  offset="0" style="stop-color:#F89921"/>
			<stop  offset="1" style="stop-color:#EC4624"/>
		</linearGradient>
		<path style="fill-rule:evenodd;clip-rule:evenodd;fill:url(#SVGID_00000083783951832145100980000007416727330751571085_);" d="
			M487.5,21.8C556.9-1.4,632,36,655.2,105.4c23.2,69.4-14.2,144.5-83.6,167.7C502.3,296.3,427.3,259,404,189.7
			c-23.3-69.4,14-144.5,83.4-167.8C487.5,21.9,487.5,21.9,487.5,21.8z"/>
	</g>
	<g class="st29">
		<path class="st30" d="M1076,854.1h71.2l-1.9,14.5h-28.6l-13.7,94.4h-14.7l13.5-94.4h-28L1076,854.1z"/>
		<path class="st30" d="M1201,932.4h-54.3c0.7,6.9,2.9,12.2,6.6,15.8c3.7,3.6,8.5,5.5,14.4,5.5c6.2,0,12.8-3.6,19.7-10.9l8.4,8.5
			c-7.3,9.1-16.7,13.7-28.1,13.7c-10.2,0-18.6-3.2-25.1-9.7c-6.5-6.5-9.8-14.8-9.8-25c0-10.4,3.6-19.2,10.8-26.5
			c7.2-7.3,15.9-10.9,26.2-10.9c8.7,0,16.2,3.2,22.3,9.7c6.2,6.4,9.2,14.2,9.2,23.4C1201.4,928.2,1201.3,930.4,1201,932.4z
			 M1147.8,921.6h40.1c-2.2-11.2-8.6-16.8-19.1-16.8c-5.2,0-9.8,1.5-13.6,4.4C1151.5,912.1,1149,916.3,1147.8,921.6z"/>
		<path class="st30" d="M1265.9,944l-2.6,17.4c-7.3,2.5-12.8,3.7-16.5,3.7c-9.2,0-17-3.5-23.4-10.5c-6.4-7-9.5-15.6-9.5-25.8
			c0-10,3.5-18.5,10.4-25.4c6.9-7,15.3-10.5,25-10.5c7.1,0,14.4,2.1,21.9,6.2l-2.3,15.5c-7.9-4.8-14.3-7.2-19.4-7.2
			c-5.8,0-10.8,2.1-15,6.4c-4.2,4.3-6.2,9.4-6.2,15.5c0,5.7,1.8,10.6,5.5,14.7c3.7,4.1,8,6.2,13,6.2
			C1251.6,950.2,1257.9,948.1,1265.9,944z"/>
		<path class="st30" d="M1295.5,849.4h14.7l-7.4,57.8c4.2-4.8,8-8.4,11.6-10.8c3.6-2.4,7.4-3.6,11.5-3.6c5.9,0,10.9,2.1,15.1,6.2
			c4.2,4.1,6.3,9.1,6.3,15c0,1-0.1,2-0.2,2.9l-5.7,46.1h-14.9l5.6-42.9v-2.1c0-3.8-1-7-3.1-9.4c-2.1-2.5-4.7-3.7-7.9-3.7
			c-4.7,0-9.2,2.7-13.5,8c-4.3,5.3-6.9,11.7-7.9,19.2l-4,31h-14.6L1295.5,849.4z"/>
		<path class="st30" d="M1437.5,868.5l-12.7,8.4c-5.5-7.2-12-10.8-19.6-10.8c-5,0-9.5,1.7-13.4,5s-5.8,7.2-5.8,11.4
			c0,3.6,1.4,6.8,4.1,9.5s8.3,6,16.7,10s14.6,8.4,18.8,13.2c4.1,4.9,6.2,11,6.2,18.3c0,8.8-3.7,16.5-11,23.1c-7.4,6.6-16,10-25.8,10
			c-7.9,0-15.4-2.1-22.4-6.4c-7-4.3-12-10-15.1-17.2l13.8-6.5c6,9.6,13.8,14.4,23.3,14.4c5.6,0,10.6-1.8,15-5.5s6.5-7.8,6.5-12.3
			c0-3.6-1.4-6.8-4.3-9.6s-8.4-6-16.8-9.9s-14.5-8.2-18.6-13.1s-6.2-10.9-6.2-18.2c0-8.8,3.4-16.4,10.1-22.7
			c6.8-6.3,14.9-9.4,24.5-9.4C1418.7,850.4,1429.6,856.5,1437.5,868.5z"/>
		<path class="st30" d="M1447.3,930.3c0-10.3,3.7-19,11.1-26.3c7.4-7.3,16.3-10.9,26.7-10.9c10.4,0,19,3.3,25.9,10
			c6.9,6.6,10.3,14.9,10.3,24.8c0,10.5-3.6,19.3-10.8,26.3c-7.2,7-16.2,10.5-27,10.5c-10.6,0-19.3-3.2-26.1-9.6
			C1450.7,948.5,1447.3,940.3,1447.3,930.3z M1485.6,907.5c-6.7,0-12.3,2.2-16.8,6.6c-4.6,4.4-6.8,9.7-6.8,15.8
			c0,6.1,1.9,11,5.7,14.6c3.8,3.6,8.9,5.5,15.3,5.5c7.1,0,12.9-2,17.3-6c4.4-4,6.6-9.2,6.6-15.7c0-5.9-2-10.9-6-14.8
			C1496.9,909.5,1491.8,907.5,1485.6,907.5z"/>
		<path class="st30" d="M1588.7,851.9l-4.3,13.9c-4.2-1.3-7.3-1.9-9.4-1.9c-3.7,0-5.9,2.3-6.7,7l-3.6,23.6h17.3l-2.3,13.5h-17
			l-8.4,55h-14.5l8.3-55h-13.5l2-13.5h13.5l3.9-25.7c0.9-6,3.2-10.7,7.1-14.2c3.9-3.5,8.7-5.2,14.4-5.2
			C1579.4,849.4,1583.8,850.2,1588.7,851.9z"/>
		<path class="st30" d="M1612.9,863.9h14.5l-4.5,30.6h12.6l-1.9,13.5h-12.7l-8.2,55h-14.7l8.3-55h-10.7l2-13.5h10.8L1612.9,863.9z"
			/>
		<path class="st30" d="M1705.7,854.1h23c9.9,0,18,2.9,24.3,8.8c6.3,5.9,9.5,13.3,9.5,22.4c0,8.7-3.5,16.4-10.4,23.2
			s-18.1,10.2-33.4,10.2c-3.1,0-5.6-0.1-7.7-0.2l-6.8,44.5h-14.5L1705.7,854.1z M1718.5,867.1l-5.7,38.5c12.3,0,21.1-2,26.3-6
			c5.2-4,7.8-8.8,7.8-14.4c0-4.2-1.2-7.9-3.7-10.9c-2.5-3.1-5.3-5-8.4-5.9C1731.6,867.5,1726.2,867.1,1718.5,867.1z"/>
		<path class="st30" d="M1776.1,894.6h15.2l13.1,38.1l22.8-38.1h16.2l-42.3,71.3L1776.1,894.6z"/>
		<path class="st30" d="M1872.9,863.9h14.5l-4.5,30.6h12.6l-1.9,13.5h-12.7l-8.2,55h-14.7l8.3-55h-10.7l2-13.5h10.8L1872.9,863.9z"
			/>
		<path class="st30" d="M1901.3,953c0-3.1,1.1-5.8,3.4-8.1c2.3-2.3,5-3.4,8.2-3.4c3.1,0,5.8,1.1,8.1,3.4c2.3,2.3,3.4,5,3.4,8.1
			c0,3.2-1.1,5.9-3.4,8.2c-2.3,2.3-5,3.4-8.2,3.4c-3.2,0-5.9-1.1-8.2-3.3C1902.4,959,1901.3,956.3,1901.3,953z"/>
		<path class="st30" d="M2005,854.1h14.5l-13.8,94h32.1l-2.3,14.9h-46.8L2005,854.1z"/>
		<path class="st30" d="M2074.4,863.9h14.5l-4.5,30.6h12.6l-1.9,13.5h-12.7l-8.2,55h-14.7l8.3-55h-10.7l2-13.5h10.8L2074.4,863.9z"
			/>
		<path class="st30" d="M2170.2,849.4h14.5L2167.6,963h-14.3l0.9-7.7c-4.2,3.4-8,5.8-11.2,7.3c-3.3,1.5-7.1,2.3-11.5,2.3
			c-8.6,0-16.2-3.6-22.8-10.7c-6.6-7.1-9.9-15.4-9.9-24.7c0-10,3.6-18.7,10.8-25.9c7.2-7.2,15.8-10.9,25.8-10.9
			c11.6,0,20.2,5.5,26.1,16.6L2170.2,849.4z M2159.6,928c0-6.3-2.2-11.7-6.6-16.2c-4.4-4.5-9.6-6.8-15.7-6.8c-6.5,0-12,2.5-16.4,7.4
			c-4.4,4.9-6.7,11-6.7,18.2c0,6.3,2.2,11.7,6.5,16.1s9.6,6.6,15.9,6.6c6.3,0,11.7-2.5,16.2-7.4C2157.3,941,2159.6,935,2159.6,928z"
			/>
		<path class="st30" d="M2190.4,953c0-3.1,1.1-5.8,3.4-8.1c2.3-2.3,5-3.4,8.2-3.4c3.1,0,5.8,1.1,8.1,3.4c2.3,2.3,3.4,5,3.4,8.1
			c0,3.2-1.1,5.9-3.4,8.2c-2.3,2.3-5,3.4-8.2,3.4c-3.2,0-5.9-1.1-8.2-3.3C2191.5,959,2190.4,956.3,2190.4,953z"/>
	</g>
</g>
</svg>
